<mxfile host="app.diagrams.net" modified="2021-01-27T04:30:38.726Z" agent="5.0 (Macintosh; Intel Mac OS X 10_15_7) AppleWebKit/537.36 (KHTML, like Gecko) Chrome/87.0.4280.141 Safari/537.36" etag="lEcCHMbnGg01EU8GzWhn" version="14.1.8" type="github">
  <diagram name="Page-1" id="bd83a815-5ea8-2e97-e5ec-87c9f400f2fa">
    <mxGraphModel dx="2923.5" dy="1841" grid="1" gridSize="10" guides="0" tooltips="1" connect="0" arrows="0" fold="1" page="1" pageScale="1.5" pageWidth="1169" pageHeight="826" background="#ffffff" math="0" shadow="0">
      <root>
        <mxCell id="0" style=";html=1;" />
        <mxCell id="1" style=";html=1;" parent="0" />
        <mxCell id="lenNtuGCxwQlxNRmlOMx-96" value="&lt;table border=&quot;1&quot; width=&quot;100%&quot; cellpadding=&quot;4&quot; style=&quot;width: 100% ; height: 100% ; border-collapse: collapse ; border: 1px solid rgb(77 , 77 , 77)&quot;&gt;&lt;tbody&gt;&lt;tr&gt;&lt;td&gt;&lt;br&gt;&lt;/td&gt;&lt;th align=&quot;left&quot;&gt;&amp;nbsp; &amp;nbsp; &amp;nbsp; &amp;nbsp; pk&lt;/th&gt;&lt;th align=&quot;left&quot;&gt;&amp;nbsp; &amp;nbsp;sk&lt;/th&gt;&lt;th align=&quot;left&quot;&gt;&amp;nbsp;category&lt;/th&gt;&lt;td&gt;&lt;b&gt;popularity&lt;/b&gt;&lt;/td&gt;&lt;td&gt;&lt;b&gt;attribute&lt;/b&gt;&lt;/td&gt;&lt;/tr&gt;&lt;tr&gt;&lt;td&gt;Course&lt;/td&gt;&lt;td&gt;&amp;nbsp;course&lt;/td&gt;&lt;td&gt;&lt;div style=&quot;background-color: rgb(255 , 255 , 255) ; font-family: &amp;#34;menlo&amp;#34; , &amp;#34;monaco&amp;#34; , &amp;#34;courier new&amp;#34; , monospace ; line-height: 18px&quot;&gt;&lt;span style=&quot;color: #a31515&quot;&gt;`&lt;/span&gt;&lt;span style=&quot;color: #0000ff&quot;&gt;${&lt;/span&gt;&lt;span style=&quot;color: #001080&quot;&gt;courseName&lt;/span&gt;&lt;span style=&quot;color: #0000ff&quot;&gt;}&lt;/span&gt;&lt;span style=&quot;color: #a31515&quot;&gt;`&lt;/span&gt;&lt;/div&gt;&lt;/td&gt;&lt;td&gt;&lt;br&gt;&lt;/td&gt;&lt;td&gt;&lt;br&gt;&lt;/td&gt;&lt;td&gt;&lt;br&gt;&lt;/td&gt;&lt;/tr&gt;&lt;tr&gt;&lt;td&gt;Course Lesson&lt;/td&gt;&lt;td&gt;&lt;div style=&quot;background-color: rgb(255 , 255 , 255) ; font-family: &amp;#34;menlo&amp;#34; , &amp;#34;monaco&amp;#34; , &amp;#34;courier new&amp;#34; , monospace ; line-height: 18px&quot;&gt;&lt;span style=&quot;color: #a31515&quot;&gt;`instructor#&lt;/span&gt;&lt;span style=&quot;color: #0000ff&quot;&gt;${&lt;/span&gt;&lt;span style=&quot;color: #001080&quot;&gt;instructor&lt;/span&gt;&lt;span style=&quot;color: #0000ff&quot;&gt;}&lt;/span&gt;&lt;span style=&quot;color: #a31515&quot;&gt;`&lt;/span&gt;&lt;/div&gt;&lt;/td&gt;&lt;td&gt;&lt;div style=&quot;background-color: rgb(255 , 255 , 255) ; font-family: &amp;#34;menlo&amp;#34; , &amp;#34;monaco&amp;#34; , &amp;#34;courier new&amp;#34; , monospace ; line-height: 18px&quot;&gt;&lt;span style=&quot;color: #a31515&quot;&gt;`courseName#&lt;/span&gt;&lt;span style=&quot;color: #0000ff&quot;&gt;${&lt;/span&gt;&lt;span style=&quot;color: #001080&quot;&gt;courseName&lt;/span&gt;&lt;span style=&quot;color: #0000ff&quot;&gt;}&lt;/span&gt;&lt;span style=&quot;color: #a31515&quot;&gt;#weekNumber#&lt;/span&gt;&lt;span style=&quot;color: #0000ff&quot;&gt;${&lt;/span&gt;&lt;span style=&quot;color: #001080&quot;&gt;weekNumber&lt;/span&gt;&lt;span style=&quot;color: #0000ff&quot;&gt;}&lt;/span&gt;&lt;span style=&quot;color: #a31515&quot;&gt;#lesson#&lt;/span&gt;&lt;span style=&quot;color: #0000ff&quot;&gt;${&lt;/span&gt;&lt;span style=&quot;color: #001080&quot;&gt;lessonNumber&lt;/span&gt;&lt;span style=&quot;color: #0000ff&quot;&gt;}&lt;/span&gt;&lt;span style=&quot;color: #a31515&quot;&gt;`&lt;/span&gt;&lt;/div&gt;&lt;/td&gt;&lt;td&gt;&lt;br&gt;&lt;/td&gt;&lt;td&gt;&lt;br&gt;&lt;/td&gt;&lt;td&gt;&lt;br&gt;&lt;/td&gt;&lt;/tr&gt;&lt;tr&gt;&lt;td&gt;Instructor&lt;/td&gt;&lt;td&gt;&lt;span style=&quot;font-family: &amp;#34;menlo&amp;#34; , &amp;#34;monaco&amp;#34; , &amp;#34;courier new&amp;#34; , monospace ; color: rgb(163 , 21 , 21)&quot;&gt;`instructor#&lt;/span&gt;&lt;span style=&quot;font-family: &amp;#34;menlo&amp;#34; , &amp;#34;monaco&amp;#34; , &amp;#34;courier new&amp;#34; , monospace ; color: rgb(0 , 0 , 255)&quot;&gt;${&lt;/span&gt;&lt;span style=&quot;font-family: &amp;#34;menlo&amp;#34; , &amp;#34;monaco&amp;#34; , &amp;#34;courier new&amp;#34; , monospace ; color: rgb(0 , 16 , 128)&quot;&gt;instructor&lt;/span&gt;&lt;span style=&quot;font-family: &amp;#34;menlo&amp;#34; , &amp;#34;monaco&amp;#34; , &amp;#34;courier new&amp;#34; , monospace ; color: rgb(0 , 0 , 255)&quot;&gt;}&lt;/span&gt;&lt;span style=&quot;font-family: &amp;#34;menlo&amp;#34; , &amp;#34;monaco&amp;#34; , &amp;#34;courier new&amp;#34; , monospace ; color: rgb(163 , 21 , 21)&quot;&gt;`&lt;/span&gt;&lt;br&gt;&lt;/td&gt;&lt;td&gt;&amp;nbsp; profile&lt;/td&gt;&lt;td&gt;&lt;br&gt;&lt;/td&gt;&lt;td&gt;&lt;br&gt;&lt;/td&gt;&lt;td&gt;&lt;br&gt;&lt;/td&gt;&lt;/tr&gt;&lt;tr&gt;&lt;td&gt;Self Guided&lt;/td&gt;&lt;td&gt;&lt;font&gt;&amp;nbsp;selfGuided&lt;/font&gt;&lt;/td&gt;&lt;td&gt;&lt;div style=&quot;background-color: rgb(255 , 255 , 255) ; font-family: &amp;#34;menlo&amp;#34; , &amp;#34;monaco&amp;#34; , &amp;#34;courier new&amp;#34; , monospace ; line-height: 18px&quot;&gt;&lt;span style=&quot;color: #a31515&quot;&gt;`selfGuided#&lt;/span&gt;&lt;span style=&quot;color: #0000ff&quot;&gt;${&lt;/span&gt;&lt;span style=&quot;color: #001080&quot;&gt;id&lt;/span&gt;&lt;span style=&quot;color: #0000ff&quot;&gt;}&lt;/span&gt;&lt;span style=&quot;color: #a31515&quot;&gt;`&lt;/span&gt;&lt;/div&gt;&lt;/td&gt;&lt;td&gt;&lt;br&gt;&lt;/td&gt;&lt;td&gt;&lt;br&gt;&lt;/td&gt;&lt;td&gt;&lt;br&gt;&lt;/td&gt;&lt;/tr&gt;&lt;tr&gt;&lt;td&gt;Self Guided Segment&lt;/td&gt;&lt;td&gt;&lt;div style=&quot;background-color: rgb(255 , 255 , 255) ; font-family: &amp;#34;menlo&amp;#34; , &amp;#34;monaco&amp;#34; , &amp;#34;courier new&amp;#34; , monospace ; line-height: 18px&quot;&gt;&lt;span style=&quot;color: #a31515&quot;&gt;`selfGuided#&lt;/span&gt;&lt;span style=&quot;color: #0000ff&quot;&gt;${&lt;/span&gt;&lt;span style=&quot;color: #001080&quot;&gt;id&lt;/span&gt;&lt;span style=&quot;color: #0000ff&quot;&gt;}&lt;/span&gt;&lt;span style=&quot;color: #a31515&quot;&gt;`&lt;/span&gt;&lt;/div&gt;&lt;/td&gt;&lt;td&gt;&lt;div style=&quot;background-color: rgb(255 , 255 , 255) ; font-family: &amp;#34;menlo&amp;#34; , &amp;#34;monaco&amp;#34; , &amp;#34;courier new&amp;#34; , monospace ; line-height: 18px&quot;&gt;&lt;span style=&quot;color: #a31515&quot;&gt;`sectionNumber#&lt;/span&gt;&lt;span style=&quot;color: #0000ff&quot;&gt;${&lt;/span&gt;&lt;span style=&quot;color: #001080&quot;&gt;sectionNumber&lt;/span&gt;&lt;span style=&quot;color: #0000ff&quot;&gt;}&lt;/span&gt;&lt;span style=&quot;color: #a31515&quot;&gt;`&lt;/span&gt;&lt;/div&gt;&lt;/td&gt;&lt;td&gt;&lt;br&gt;&lt;/td&gt;&lt;td&gt;&lt;br&gt;&lt;/td&gt;&lt;td&gt;&lt;br&gt;&lt;/td&gt;&lt;/tr&gt;&lt;tr&gt;&lt;td&gt;Meditation&lt;/td&gt;&lt;td&gt;&amp;nbsp;meditation&lt;/td&gt;&lt;td&gt;&amp;nbsp;`&lt;span style=&quot;color: rgb(163 , 21 , 21) ; font-family: &amp;#34;menlo&amp;#34; , &amp;#34;monaco&amp;#34; , &amp;#34;courier new&amp;#34; , monospace ; background-color: rgb(255 , 255 , 255)&quot;&gt;meditation&lt;/span&gt;#&lt;span style=&quot;font-family: &amp;#34;menlo&amp;#34; , &amp;#34;monaco&amp;#34; , &amp;#34;courier new&amp;#34; , monospace ; color: rgb(0 , 0 , 255)&quot;&gt;${&lt;/span&gt;&lt;span style=&quot;font-family: &amp;#34;menlo&amp;#34; , &amp;#34;monaco&amp;#34; , &amp;#34;courier new&amp;#34; , monospace ; color: rgb(0 , 16 , 128)&quot;&gt;title&lt;/span&gt;&lt;span style=&quot;font-family: &amp;#34;menlo&amp;#34; , &amp;#34;monaco&amp;#34; , &amp;#34;courier new&amp;#34; , monospace ; color: rgb(0 , 0 , 255)&quot;&gt;}&lt;/span&gt;&lt;span style=&quot;font-family: &amp;#34;menlo&amp;#34; , &amp;#34;monaco&amp;#34; , &amp;#34;courier new&amp;#34; , monospace ; color: rgb(163 , 21 , 21)&quot;&gt;`&lt;/span&gt;&lt;/td&gt;&lt;td&gt;&lt;br&gt;&lt;/td&gt;&lt;td&gt;&lt;br&gt;&lt;/td&gt;&lt;td&gt;&lt;br&gt;&lt;/td&gt;&lt;/tr&gt;&lt;tr&gt;&lt;td&gt;User&lt;/td&gt;&lt;td&gt;&lt;div style=&quot;background-color: rgb(255 , 255 , 255) ; font-family: &amp;#34;menlo&amp;#34; , &amp;#34;monaco&amp;#34; , &amp;#34;courier new&amp;#34; , monospace ; line-height: 18px&quot;&gt;&lt;span style=&quot;color: #a31515&quot;&gt;`userEmail#&lt;/span&gt;&lt;span style=&quot;color: #0000ff&quot;&gt;${&lt;/span&gt;&lt;span style=&quot;color: #001080&quot;&gt;userEmail&lt;/span&gt;&lt;span style=&quot;color: #0000ff&quot;&gt;}&lt;/span&gt;&lt;span style=&quot;color: #a31515&quot;&gt;`&lt;/span&gt;&lt;/div&gt;&lt;/td&gt;&lt;td&gt;&amp;nbsp; profile&lt;/td&gt;&lt;td&gt;&lt;br&gt;&lt;/td&gt;&lt;td&gt;&lt;br&gt;&lt;/td&gt;&lt;td&gt;&lt;br&gt;&lt;/td&gt;&lt;/tr&gt;&lt;tr&gt;&lt;td&gt;&lt;br&gt;&lt;/td&gt;&lt;td&gt;&lt;br&gt;&lt;/td&gt;&lt;td&gt;&lt;br&gt;&lt;/td&gt;&lt;td&gt;&lt;br&gt;&lt;/td&gt;&lt;td&gt;&lt;br&gt;&lt;/td&gt;&lt;td&gt;category&lt;/td&gt;&lt;/tr&gt;&lt;tr&gt;&lt;td&gt;&lt;br&gt;&lt;/td&gt;&lt;td&gt;&lt;br&gt;&lt;/td&gt;&lt;td&gt;&lt;br&gt;&lt;/td&gt;&lt;td&gt;&lt;br&gt;&lt;/td&gt;&lt;td&gt;&lt;br&gt;&lt;/td&gt;&lt;td&gt;id&lt;/td&gt;&lt;/tr&gt;&lt;tr&gt;&lt;td&gt;&lt;br&gt;&lt;/td&gt;&lt;td&gt;&lt;br&gt;&lt;/td&gt;&lt;td&gt;&lt;br&gt;&lt;/td&gt;&lt;td&gt;&lt;br&gt;&lt;/td&gt;&lt;td&gt;&lt;br&gt;&lt;/td&gt;&lt;td&gt;&lt;br&gt;&lt;/td&gt;&lt;/tr&gt;&lt;/tbody&gt;&lt;/table&gt;" style="text;html=1;overflow=fill;rounded=1;fillColor=none;labelBackgroundColor=none;labelBorderColor=#000000;spacingTop=1;fontFamily=Tahoma;glass=1;rotation=0;arcSize=8;" vertex="1" parent="1">
          <mxGeometry x="-1040" y="-420" width="1070" height="320" as="geometry" />
        </mxCell>
        <mxCell id="lenNtuGCxwQlxNRmlOMx-6" value="GSI-3 PK" style="text;html=1;fillColor=#bac8d3;align=center;verticalAlign=middle;whiteSpace=wrap;rounded=0;strokeColor=#23445d;" vertex="1" parent="1">
          <mxGeometry x="-170" y="-240" width="60" height="20" as="geometry" />
        </mxCell>
        <mxCell id="lenNtuGCxwQlxNRmlOMx-107" value="GSI-2 PK" style="text;html=1;fillColor=#bac8d3;align=center;verticalAlign=middle;whiteSpace=wrap;rounded=0;strokeColor=#23445d;" vertex="1" parent="1">
          <mxGeometry x="-170" y="-300" width="60" height="20" as="geometry" />
        </mxCell>
        <mxCell id="lenNtuGCxwQlxNRmlOMx-108" value="GSI-1 PK" style="text;html=1;fillColor=#bac8d3;align=center;verticalAlign=middle;whiteSpace=wrap;rounded=0;strokeColor=#23445d;" vertex="1" parent="1">
          <mxGeometry x="-170" y="-360" width="60" height="20" as="geometry" />
        </mxCell>
        <mxCell id="lenNtuGCxwQlxNRmlOMx-110" value="LSI PK" style="text;html=1;fillColor=#d0cee2;align=center;verticalAlign=middle;whiteSpace=wrap;rounded=0;strokeColor=#56517e;" vertex="1" parent="1">
          <mxGeometry x="-870" y="-180" width="70" height="20" as="geometry" />
        </mxCell>
        <mxCell id="lenNtuGCxwQlxNRmlOMx-111" value="GSI-1 SK" style="text;html=1;fillColor=#b1ddf0;align=center;verticalAlign=middle;whiteSpace=wrap;rounded=0;strokeColor=#10739e;" vertex="1" parent="1">
          <mxGeometry x="-100" y="-360" width="60" height="20" as="geometry" />
        </mxCell>
        <mxCell id="lenNtuGCxwQlxNRmlOMx-112" value="GSI-2 SK" style="text;html=1;fillColor=#b1ddf0;align=center;verticalAlign=middle;whiteSpace=wrap;rounded=0;strokeColor=#10739e;" vertex="1" parent="1">
          <mxGeometry x="-100" y="-300" width="60" height="20" as="geometry" />
        </mxCell>
        <mxCell id="lenNtuGCxwQlxNRmlOMx-113" value="GSI-3 SK" style="text;html=1;fillColor=#b1ddf0;align=center;verticalAlign=middle;whiteSpace=wrap;rounded=0;strokeColor=#10739e;" vertex="1" parent="1">
          <mxGeometry x="-100" y="-240" width="60" height="20" as="geometry" />
        </mxCell>
        <mxCell id="lenNtuGCxwQlxNRmlOMx-115" value="LSI SK" style="text;html=1;fillColor=#e1d5e7;align=center;verticalAlign=middle;whiteSpace=wrap;rounded=0;strokeColor=#9673a6;" vertex="1" parent="1">
          <mxGeometry x="30" y="-120" width="60" height="20" as="geometry" />
        </mxCell>
        <mxCell id="lenNtuGCxwQlxNRmlOMx-118" value="LSI SK" style="text;html=1;fillColor=#e1d5e7;align=center;verticalAlign=middle;whiteSpace=wrap;rounded=0;strokeColor=#9673a6;" vertex="1" parent="1">
          <mxGeometry x="30" y="-180" width="60" height="20" as="geometry" />
        </mxCell>
        <mxCell id="lenNtuGCxwQlxNRmlOMx-119" value="LSI SK" style="text;html=1;fillColor=#e1d5e7;align=center;verticalAlign=middle;whiteSpace=wrap;rounded=0;strokeColor=#9673a6;" vertex="1" parent="1">
          <mxGeometry x="30" y="-150" width="60" height="20" as="geometry" />
        </mxCell>
        <mxCell id="lenNtuGCxwQlxNRmlOMx-120" value="LSI PK" style="text;html=1;fillColor=#d0cee2;align=center;verticalAlign=middle;whiteSpace=wrap;rounded=0;strokeColor=#56517e;" vertex="1" parent="1">
          <mxGeometry x="-870" y="-150" width="70" height="20" as="geometry" />
        </mxCell>
        <mxCell id="lenNtuGCxwQlxNRmlOMx-121" value="LSI PK" style="text;html=1;fillColor=#d0cee2;align=center;verticalAlign=middle;whiteSpace=wrap;rounded=0;strokeColor=#56517e;" vertex="1" parent="1">
          <mxGeometry x="-870" y="-120" width="70" height="20" as="geometry" />
        </mxCell>
        <mxCell id="lenNtuGCxwQlxNRmlOMx-122" value="Text" style="text;html=1;strokeColor=none;fillColor=none;align=center;verticalAlign=middle;whiteSpace=wrap;rounded=0;glass=1;labelBackgroundColor=none;fontFamily=Tahoma;fontColor=#FFFFFF;" vertex="1" parent="1">
          <mxGeometry x="-490" y="-270" width="40" height="20" as="geometry" />
        </mxCell>
        <mxCell id="lenNtuGCxwQlxNRmlOMx-123" value="&lt;b&gt;&lt;font color=&quot;#191919&quot; style=&quot;font-size: 19px&quot;&gt;Single Table Schema&lt;/font&gt;&lt;/b&gt;" style="text;html=1;strokeColor=none;fillColor=none;align=center;verticalAlign=middle;whiteSpace=wrap;rounded=0;glass=1;labelBackgroundColor=none;fontFamily=Tahoma;fontColor=#FFFFFF;" vertex="1" parent="1">
          <mxGeometry x="-770" y="-490" width="370" height="30" as="geometry" />
        </mxCell>
      </root>
    </mxGraphModel>
  </diagram>
</mxfile>
